<?xml version="1.0" encoding="utf-8"?>
<!-- Generator: Adobe Illustrator 24.0.0, SVG Export Plug-In . SVG Version: 6.00 Build 0)  -->
<svg version="1.1" id="Capa_1" xmlns="http://www.w3.org/2000/svg" xmlns:xlink="http://www.w3.org/1999/xlink" x="0px" y="0px"
	 viewBox="0 0 378 233" style="enable-background:new 0 0 378 233;" xml:space="preserve">
<style type="text/css">
	.st0{fill:#E84E1B;}
</style>
<path class="st0" d="M133.37,83.21c-7.32-20.77-18.94-33.23-18.26-57.57c0.68-24.34-13.23-22.17-26.51-23.7
	C61.12-1.24,64.08,18.1,69.69,30.36s9.02,30.38,0.85,61.28c-8.17,30.89,4.45,56.09,33.04,48.68S140.69,103.97,133.37,83.21z
	 M101.71,98.95c-7.83-0.17-14.3-5.28-13.45-15.15c0.85-9.87,7.05-19.2,7.05-26.64s-1.94-14.21-7.9-18.98
	c-5.96-4.77-1.02-11.57,7.66-10.89c8.9,0.7,8.94,10.13,8.94,22.72c0,12.6,2.98,29.19,4.34,34.98S109.54,99.12,101.71,98.95z"/>
<path class="st0" d="M143.92,3.16c-25.77,5.32-23.38,41.4-10.89,63.02s5.46,35.64,13.96,41.28c6.61,4.38,8.01-9.13,33.15-13.43
	s20.21-30.66,18.17-37.3s-11.23-16.68-20.09-12.77c-8.85,3.91-9.7,9.28-7.49,12.51s3.23,8.51,0.68,10.04
	c-2.55,1.53-8.94,2.55-14.89-8.68s-11.23-22.04-9.36-29.02c1.87-6.98,10.72-9.19,9.19-0.68c-1.53,8.51,0.17,13.36,8.51,13.87
	c8.34,0.51,17.87-4.85,17.7-17.96S169.7-2.16,143.92,3.16z"/>
<path class="st0" d="M226.18,5.27c-14.19-0.74-36.42-10.64-38.63,8.43s2.82,23.17,8.18,23.04c5.36-0.13,11.62-15.51,16.47-12.96
	s1.79,13.91-2.81,27.96c-4.6,14.04-7.6,30.13,2.11,33.7c9.7,3.57,21.13-13.72,19.6-32.49c-1.53-18.77-1.47-23.11,2.74-23.49
	c4.21-0.38,5.23,1.53,5.23,25.28s21.03,17.96,21.06,0.44c0.03-17.51,1.25-32.62-5.52-43.72S238.44,5.91,226.18,5.27z"/>
<path class="st0" d="M280.35,1.52c-16.47,1.02-18.26,14.04-14.43,25.66c3.83,11.62,7.75,29.73-3.61,42.37
	c-11.36,12.64-5.17,28.98,9.06,31.79c14.23,2.81,34.19,13.41,39.22-15.42s3.11-49.15-4.05-65.5S288.58,1.01,280.35,1.52z
	 M280.87,80.22c-9.08-4.19-2.76-14.62,4.02-21.26s5.7-17.58-0.15-24.39c-5.85-6.81-5.86-14.73,0.14-14.81s10.27,16.02,10.4,32.37
	S289.95,84.41,280.87,80.22z"/>
<path class="st0" d="M96.01,148.18c-10.69-0.25-14.45,1.88-8.82,14.09c5.63,12.21,1.8,31.49-5.15,41.31s-10.79,13.32-14.2,16.39
	c-3.41,3.06-1.8,14.38,17.35,11.57c19.15-2.81,49.95-4.26,62.43-2.04c12.48,2.21,12.48,2.21,13.84-7.15
	c1.36-9.36-4.43-22.64-13.62-30.47c-9.19-7.83-12.26-9.19-15.83-5.28c-3.57,3.91-6.13,10.55-1.53,14.81c4.6,4.26,4.4,4.33,5.62,5.96
	s2.21,3.23-0.68,4.77c-2.89,1.53-8,2.04-15.66-0.34s-11.06-7.32-10.89-11.4c0.17-4.09,0.17-6.81,7.15-6.98
	c6.98-0.17,8.85-3.4,9.02-6.64c0.17-3.23-1.87-6.81-7.32-6.3s-9.19,2.93-9.53-2.28c-0.34-5.21,0.71-8.44,5.63-8.27
	s15.04,8.13,21.17,7.62c6.13-0.51,11.96-4.9,11.79-13.24c-0.17-8.34-14.76-5.11-15.44-16.51c-0.68-11.4-0.17-15.49-7.15-9.7
	C117.2,143.89,106.7,148.44,96.01,148.18z"/>
<path class="st0" d="M154.51,113.21c-9.7,7.4-21.57,17.99-16.64,31.13c4.93,13.15,20.57,9.74,33.92,17.27
	c13.35,7.53,14.43,16.83,14.68,21.55c0.26,4.72-0.89,5.23-2.81,5.49c-1.91,0.26-3.19-0.83-3.57-3.8c-0.38-2.97-1.4-8.97-7.28-15.22
	c-5.87-6.26-17.49-6-20.55-2.17s-5.49,8.81,3.32,18.13c8.81,9.32,14.81,19.55,13.78,33.55s10.17,11.55,24.34,11.55
	s21.62,0.09,25.07-21.36c3.45-21.45-2.68-43.4-17.87-51.45c-15.19-8.04-32.3-13.91-32.94-24.38c-0.64-10.47,8.94-11.74,12.51-9.45
	c3.57,2.3,3.96,4.56,3.19,7.39c-0.77,2.82-4.72,12.14,11.23,18.02c15.96,5.87,20.17,9.57,20.68-5.49s2.64-32.09-11.06-41.19
	S164.21,105.8,154.51,113.21z"/>
<path class="st0" d="M237.36,79.8c-16.3,12.15-32.93,11.58-21.82,25.68c11.1,14.1,9.15,26.4,10.17,53.8
	c1.02,27.4,2.56,51.87-2.98,62.28s2.32,9.39,8.24,8.08c5.92-1.3,13.29-0.91,20.61,0.42s17.1,1.73,5.61-11.68
	c-11.49-13.4-14.42-43.87-15.22-61.91s-1.49-39.02,5.21-54.04C253.87,87.42,253.66,67.66,237.36,79.8z"/>
<path class="st0" d="M315.28,142.7c2.14,7.05,6,12.43,7.88,33.7s-1.32,41.44-3.02,45.87c-1.7,4.43-3.06,9.34,5.28,8.5
	c8.34-0.84,21.11-0.24,18.21-22.71s-11.62-28.72-9.28-31.04c2.33-2.32,13.66,7.68,14.51,18.78c0.85,11.11-1.44,35.07,12.52,34.91
	c13.96-0.16,14.47,0.3,9.87-18.33c-4.6-18.64-3.66-41.43-2.89-55.55s9.53-29.7-0.51-28.94c-10.04,0.77-24.26-8.17-21.36,5.96
	c2.89,14.13,10.9,39.32,8.47,40.77c-2.43,1.45-12.66-5.58-13-17.84s-0.2-24.53-5.09-25.05s-9.79,3.49-17.62,2.13
	C311.4,132.48,313.66,137.35,315.28,142.7z"/>
<path class="st0" d="M293.59,110.9c-15.42,0.14-21.07-7.95-32.12-4.16c-11.05,3.79-15.15,19.67-12.42,58.45s20.96,66.07,41.36,66.67
	c20.4,0.6,25.63-15.06,26.14-36.34s-2.64-22.87-1.72-28.83c0.91-5.96-2.69-5.89-7.93-5.69c-5.24,0.2-14.54,0.44-18.25,0
	s-5.45-1.97-5.62,3.82c-0.17,5.79,0.34,11.23,0,13.62c-0.34,2.38,0.8,3.06,5.05,1.87c2.23-0.63,6.26-0.63,8.58,0.2
	s2.81,7.25,2.97,10.16c0.34,6.13-3.02,11.53-12.28,11.53s-16.65-20.5-15.8-41.2c0.85-20.69,4.39-31.76,9.66-31.76
	c5.28,0,11.05,3.77,7.09,15.85c-3.95,12.09,23.93,10.53,22.9,4.06c-1.03-6.47-7.47-15.88-6.62-23.37
	C305.45,118.31,309.01,110.77,293.59,110.9z"/>
<path class="st0" d="M372.22,110.42c-5.28-2.55-13.89-11.73-7.36-24.92s2.55-23.96-0.85-27.7c-3.4-3.74-2.21-2.39,0.51-4.6
	c2.72-2.2,9.31-9.74,7.95-25.91c-1.36-16.17-15.12-25.51-26.7-26.36c-11.57-0.85-20.5,3.93-27.48,5.97
	c-6.98,2.04-8.32,5.87-4.15,13.16c2.91,5.1,6.85,18.83,6.47,44.51c-0.38,25.68-1.62,43.15-7.49,45.06s-2.42,18.42,3.45,19.63
	s9.64-0.37,13.65-1.52c4.01-1.15,7.57-4.19,7.06-11.14c-0.85-11.54,1.55-48.57,1.29-51.7c-0.26-3.13,2.32-3.73,3.22-3.64
	c5.28,0.51,13.16,7.79,5.24,22.09c-7.92,14.3-3.57,33.91,1.87,36.47c5.45,2.55,14,3.35,18.93,2.83
	C372.77,122.13,377.5,112.98,372.22,110.42z M341.38,42.46c-9.57,0.66-2.53-10.19-5.11-15.66s-3.43-7.71-1.47-10.21
	c1.96-2.5,6.89-3.86,12.09-0.03c5.19,3.83,6.1,7.91,6.13,12.55C353.04,33.76,350.95,41.81,341.38,42.46z"/>
<path class="st0" d="M59.56,23.89C49.85,7.55,34.16,3.28,25.43,3.34C21.14,3.36,12.47,2.6,6.13,4.31C-0.43,6.08,0.49,11,3.3,21.55
	s7.69,67.66,2.9,90.12s-2.4,24.64,9.46,24.64s32.64-7.77,43.79-33.83S69.26,40.23,59.56,23.89z M31.84,97.3
	c-4.74-0.56,1.81-14.9,3.28-22.47c1.47-7.57,1.58-17.29-6.51-24.95c-8.09-7.66-3.53-17.53,3.44-17.14
	c8.37,0.48,11.45,8.27,12.09,27.79C44.78,80.05,36.58,97.85,31.84,97.3z"/>
<path class="st0" d="M54.71,132.46c-14.3-0.51-21.43,10.74-33.85,10.91c-12.43,0.17-15.27-5.8-14.81,4.09
	c0.51,10.76,1.73,35.4,0.65,52.28s-4.96,30.14,19.14,30.14s52.04-20.98,53.74-51.45C81.29,147.97,69.01,132.97,54.71,132.46z
	 M49.6,196.44c-0.13,5.58-6.99,6.89-12.89,4.6s-9.69-9.56-5.9-19.87c3.06-8.34,7.56-11.02,2.84-14.98
	c-4.72-3.96-0.64-9.27,4.72-9.32s8.35,5.36,8.35,12.13s-3.67,7.6-2.6,14.75C45.18,190.89,49.73,190.86,49.6,196.44z"/>
</svg>
